<?xml version="1.0" encoding="UTF-8" standalone="no"?>
<!-- Generator: Adobe Illustrator 16.0.0, SVG Export Plug-In . SVG Version: 6.00 Build 0)  -->

<svg
   version="1.1"
   id="Layer_1"
   x="0px"
   y="0px"
   width="960px"
   height="960px"
   viewBox="0 0 960 960"
   enable-background="new 0 0 960 960"
   xml:space="preserve"
   sodipodi:docname="FoxelUniverse-00-base body-01 - Copy.svg"
   inkscape:version="1.1 (c68e22c387, 2021-05-23)"
   xmlns:inkscape="http://www.inkscape.org/namespaces/inkscape"
   xmlns:sodipodi="http://sodipodi.sourceforge.net/DTD/sodipodi-0.dtd"
   xmlns="http://www.w3.org/2000/svg"
   xmlns:svg="http://www.w3.org/2000/svg"><defs
   id="defs241" /><sodipodi:namedview
   id="namedview239"
   pagecolor="#ffffff"
   bordercolor="#666666"
   borderopacity="1.0"
   inkscape:pageshadow="2"
   inkscape:pageopacity="0.0"
   inkscape:pagecheckerboard="0"
   showgrid="false"
   inkscape:zoom="0.84583333"
   inkscape:cx="480.59113"
   inkscape:cy="480"
   inkscape:window-width="1920"
   inkscape:window-height="992"
   inkscape:window-x="-8"
   inkscape:window-y="-8"
   inkscape:window-maximized="1"
   inkscape:current-layer="g232" />
<g
   id="g232">
	<g
   id="g22">
		<g
   id="g8">
			<path
   fill="#EA5534"
   d="M643.851,487.408c0,0,208.795-84.563,84.563-222.366c-124.233-137.805,91.871-155.554,145.113-79.343     S944.552,515,762.795,536.901c0,0-59.438,8.969-106.416-22.349C609.399,483.232,643.851,487.408,643.851,487.408z"
   id="path2" />
			<g
   id="g6">
				<path
   d="M644.515,489.818c11.796-4.786,23.154-10.858,34.132-17.267c22.678-13.239,44.243-29.282,61.549-49.15      c18.667-21.43,31.415-48.111,30.057-77.025c-0.787-16.765-6.374-32.893-14.301-47.563c-10.632-19.68-26.574-34.891-39.89-52.587      c-15.102-20.069-32.367-50.38-17.395-75.086c11.996-19.796,38.816-25.996,60.212-27.4c27.201-1.784,55.689,3.631,79.954,16.162      c11.342,5.856,21.748,13.593,29.862,23.502c7.102,8.673,12.223,19.161,16.612,29.404c11.275,26.315,17.248,55.098,20.213,83.471      c3.377,32.325,2.474,65.328-3.858,97.241c-6.182,31.154-18.036,61.789-37.994,86.773      c-20.901,26.165-50.023,43.404-82.514,50.915c-30.204,6.982-63.548,5.818-93.839-4.313      c-12.363-4.136-23.661-10.288-34.351-17.686c-4.7-3.253-9.281-6.703-13.466-10.603c-1.894-1.765-4.162-3.881-5.117-6.36      c-0.765-1.983,1.66-2.254,3.836-2.443c1.86-0.162,3.777-0.113,5.631,0.105c3.198,0.378,3.162-4.626,0-5      c-4.395-0.52-11.64-0.686-14.062,3.857c-2.184,4.096,1.647,8.616,4.23,11.43c7.745,8.438,18.347,15.184,28.158,20.877      c30.399,17.643,68.397,22.51,102.938,18.035c33.498-4.339,65.103-17.959,89.56-41.511      c22.572-21.736,37.318-50.375,46.226-80.146c9.299-31.074,12.344-63.975,11.315-96.308      c-0.958-30.084-5.583-60.332-14.575-89.084c-7-22.384-16.785-45.855-34.641-61.778c-19.931-17.774-47.019-27-73.138-30.396      c-24.752-3.219-52.008-1.848-74.517,9.92c-20.088,10.502-30.277,30.056-26.378,52.485c6.699,38.536,41.393,63,60.338,94.935      c16.724,28.19,21.364,61.051,7.755,91.418c-11.497,25.654-32.632,46.145-54.959,62.584      c-16.433,12.1-34.253,22.475-52.768,31.047c-1.619,0.75-3.248,1.481-4.886,2.19c-1.172,0.507-0.234,0.116-1.262,0.534      C640.239,486.193,641.526,491.032,644.515,489.818z"
   id="path4" />
			</g>
		</g>
		<g
   id="g16">
			<path
   fill="#FEFDF0"
   d="M516.982,223.283c0,0,22.588,41.497,75.831,37.582c53.243-3.914,70.021-13.311,90.379-11.744     C703.55,250.687,729,258.26,741,281.352v-20.486l19-2.349v-50.894l21.267,10.179l9.46-36.8l41.53,30.535l9.412-30.535     l15.667,21.141c0,0,1.57-12.528,3.92-13.312c2.349-0.783,24.142,18.009,24.142,18.009s-39.016-97.09-160.378-97.09     S591.957,245.599,516.982,223.283z"
   id="path10" />
			<g
   id="g14">
				<path
   d="M514.824,224.545c13.336,24.305,42.085,38.232,68.911,39.058c13.265,0.408,26.874-1.699,39.987-3.522      c9.835-1.368,19.592-3.196,29.333-5.113c15.68-3.086,29.781-4.641,45.6-0.986c16.923,3.91,32.032,13.25,40.649,28.633      c1.226,2.189,4.659,1.198,4.659-1.262c0-6.829,0-13.657,0-20.486c-0.833,0.833-1.667,1.667-2.5,2.5      c6.264-0.783,12.528-1.565,18.792-2.349c1.352-0.169,2.5-1.01,2.5-2.5c0-16.965,0-33.929,0-50.894      c-1.254,0.72-2.508,1.439-3.762,2.158c7.046,3.394,14.093,6.786,21.14,10.18c1.416,0.682,3.248,0.168,3.672-1.494      c3.132-12.268,6.264-24.533,9.396-36.801c-1.224,0.498-2.448,0.996-3.672,1.494c13.833,10.179,27.665,20.357,41.498,30.535      c1.352,0.995,3.238-0.082,3.672-1.494c3.132-10.178,6.264-20.356,9.396-30.535c-1.523,0.199-3.046,0.398-4.569,0.598      c5.22,7.047,10.439,14.094,15.659,21.141c1.547,2.088,4.336,1.254,4.659-1.262c0.442-3.45,1.09-6.944,2.224-10.236      c0.546-1.587-0.997-0.643-0.734-0.563c0.557,0.165,1.137,0.63,1.626,0.931c1.59,0.976,3.09,2.107,4.585,3.221      c5.544,4.125,10.852,8.604,16.087,13.113c1.689,1.456,5.203,0.106,4.178-2.432c-5.594-13.859-14.761-26.617-24.356-37.928      c-22.178-26.144-52.004-44.839-84.973-54.059c-39.177-10.957-83.303-10.277-119.593,9.363      c-28.122,15.22-48.47,40.064-69.349,63.57c-9.653,10.868-19.791,21.95-32.459,29.352c-12.239,7.15-25.907,8.331-39.431,4.398      c-3.103-0.903-4.419,3.922-1.329,4.82c11.909,3.464,24.271,3.451,35.836-1.253c11.416-4.643,20.947-12.887,29.538-21.535      c21.631-21.774,39.363-47.075,64.417-65.337c33.825-24.654,75.205-29.427,115.71-22.078      c36.028,6.536,68.934,24.521,93.766,51.398c8.047,8.71,15.144,18.302,21.147,28.527c1.744,2.97,3.38,6.007,4.883,9.106      c0.414,0.853,0.813,1.712,1.197,2.578c0.41,0.926,0.092,0.195,0.176,0.403c1.393-0.811,2.786-1.621,4.178-2.432      c-6.779-5.84-13.663-11.783-21.117-16.752c-2.837-1.891-5.751-3.113-7.951,0.313c-2.376,3.7-2.708,9.238-3.255,13.51      c1.553-0.421,3.106-0.841,4.659-1.262c-5.22-7.047-10.439-14.094-15.659-21.141c-1.261-1.703-3.887-1.619-4.569,0.598      c-3.132,10.178-6.264,20.356-9.396,30.535c1.224-0.498,2.448-0.996,3.672-1.494c-13.833-10.179-27.665-20.357-41.498-30.535      c-1.307-0.962-3.303,0.046-3.672,1.494c-3.132,12.266-6.264,24.533-9.396,36.799c1.224-0.498,2.448-0.996,3.672-1.494      c-7.046-3.393-14.093-6.785-21.14-10.178c-1.667-0.804-3.762,0.148-3.762,2.158c0,16.965,0,33.929,0,50.894      c0.833-0.833,1.667-1.667,2.5-2.5c-6.264,0.783-12.528,1.565-18.792,2.349c-1.352,0.169-2.5,1.01-2.5,2.5      c0,6.829,0,13.657,0,20.486c1.553-0.421,3.106-0.841,4.659-1.262c-11.087-19.794-31.742-29.723-53.542-32.753      c-14.467-2.011-28.126,0.813-42.291,3.582c-10.687,2.089-21.417,3.893-32.225,5.237c-13.298,1.654-26.898,3.351-40.281,1.847      c-18.105-2.035-34.814-11.092-47.229-24.255c-3.332-3.532-6.563-7.448-8.911-11.727      C517.59,219.194,513.272,221.717,514.824,224.545z"
   id="path12" />
			</g>
		</g>
		<g
   opacity="0.1"
   id="g20">
			<path
   d="M624.97,152.199c0,0,66.97-32.404,125.366-28.094c0,0-7.308,2.609-12.527,7.309c0,0,47.501,2.087,64.204,16.18     c0,0,0.002-1.566-19.313-2.609c0,0,77.256,72.034,43.847,191.047c0,0,14.094-3.13,15.66-14.615c0,0,5.576,80.385-70.029,149.289     c0,0,13.653-1.564,19.396-4.175c0,0-29.521,56.47-154.021,38.47l10.5,2.5c0,0,26.31,22.574,57.032,28.258     c30.723,5.683,80.604,5.588,128.468-24.758c47.865-30.344,82.736-87.25,79.102-160.863     c-3.633-73.611-11.946-135.5-37.283-161.714c-25.335-26.213-34.729-62.223-126.6-77.364     C748.771,111.059,680.209,99.908,624.97,152.199z"
   id="path18" />
		</g>
	</g>
	<g
   id="g78">
		<g
   id="g32">
			<g
   id="g30">
				<path
   fill="#EA5534"
   d="M473.133,567.41c0,0-56.891,150.607,34.109,160.607c0,0-75.173,91.991-47.69,97.766      c28,5.884,82.491-62.37,108-128.28c6-15.503-11-25.503-11-25.503s62.5-38,37.882-134.909"
   id="path24" />
				<g
   id="g28">
					<path
   d="M470.722,566.746c-5.957,15.803-10.192,32.438-13.358,49c-5.158,26.981-8.101,57.796,3.665,83.511       c8.602,18.801,26.169,28.927,46.214,31.261c-0.589-1.423-1.179-2.846-1.768-4.268c-14.184,17.371-27.597,35.635-39.29,54.774       c-6.348,10.39-13.494,22.1-15.046,34.414c-1.341,10.648,7.313,14.308,16.598,12.726c13.074-2.227,24.661-12.805,33.79-21.683       c14.183-13.792,26.115-29.979,36.82-46.555c11.982-18.553,22.183-38.279,30.438-58.762c3.166-7.856,3.394-15.08-1.442-22.306       c-2.394-3.576-5.827-6.801-9.527-9.018c0,1.438,0,2.878,0,4.316c12.297-7.519,22.174-20.133,29.287-32.386       c18.539-31.935,18.473-70.393,9.744-105.347c-0.781-3.127-5.603-1.8-4.821,1.33c8.533,34.167,8.405,71.1-9.675,102.242       c-6.523,11.237-15.777,22.945-27.058,29.844c-1.606,0.981-1.63,3.341,0,4.316c5.595,3.353,10.442,9.244,11.021,15.88       c0.528,6.051-3.538,12.84-5.863,18.195c-2.843,6.55-5.954,12.98-9.207,19.335c-12.009,23.455-26.604,45.928-44.065,65.7       c-6.919,7.835-14.453,15.299-22.925,21.453c-5.817,4.226-12.694,8.338-20.029,8.884c-11.882,0.884-7.923-11.221-5.136-18.294       c6.822-17.315,18.309-33.155,29.092-48.175c6.68-9.304,13.586-18.478,20.832-27.352c1.451-1.776,0.468-4.008-1.768-4.268       c-66.577-7.752-50.516-94.896-37.594-139.312c1.773-6.094,3.655-12.189,5.895-18.132       C476.683,565.052,471.848,563.758,470.722,566.746L470.722,566.746z"
   id="path26" />
				</g>
			</g>
		</g>
		<g
   id="g42">
			<g
   id="g40">
				<path
   fill="#EA5534"
   d="M237.417,604.46c0,0-1.115,104.104-7.624,120.867c0,0-18.241,65.749-1.168,73.133      c34.465,14.905,69.856-136.644,77.555-213.467"
   id="path34" />
				<g
   id="g38">
					<path
   d="M234.917,604.46c-0.279,25.75-1,51.522-2.463,77.233c-0.763,13.408-0.995,27.596-4.349,40.676       c-2.435,9.494-4.836,18.931-6.534,28.613c-2.369,13.514-5.84,30.984,0.282,43.979c4.244,9.01,15.282,8.182,22.152,3.051       c10.155-7.584,16.234-20.502,21.309-31.731c7.831-17.331,13.615-35.582,18.771-53.859       c11.719-41.536,20.242-84.474,24.595-127.428c0.325-3.207-4.678-3.176-5,0c-4.14,40.858-12.301,81.572-23.055,121.182       c-5.133,18.906-10.987,37.769-18.816,55.75c-4.878,11.202-10.896,25.063-21.204,32.409c-3.144,2.241-6.688,3.296-10.431,2.062       c-5.303-1.75-5.906-9.84-6.219-14.403c-1.069-15.608,2.435-31.741,5.956-46.861c1.851-7.949,4.08-15.544,5.099-23.683       c2.036-16.256,2.705-32.713,3.385-49.069c0.803-19.294,1.313-38.609,1.522-57.919       C239.952,601.234,234.952,601.237,234.917,604.46L234.917,604.46z"
   id="path36" />
				</g>
			</g>
		</g>
		<g
   id="g50">
			<path
   fill="#EA5534"
   d="M403.552,467.282c0,0,47.409,25.685,144.5,2.718c97.089-22.969,133.354,21.836,119.833,84.736     c-11.439,53.217-347.413,212.765-417.954,91.398c-63.379-109.044-21.128-158.438-5.379-178.853     C266.079,439.378,347.841,420.092,403.552,467.282z"
   id="path44" />
			<g
   id="g48">
				<path
   d="M402.29,469.441c4.868,2.619,10.369,4.306,15.652,5.825c14.955,4.303,30.626,6.107,46.139,6.65      c25.854,0.905,51.781-2.383,77.024-7.782c24.106-5.156,48.253-10.251,72.977-6.303c15.929,2.543,31.099,9.361,41.422,22.061      c9.728,11.965,12.855,27.885,12.581,42.947c-0.189,10.438-0.979,21.691-7.169,30.422c-5.137,7.246-12.145,13.268-18.995,18.828      c-21.4,17.369-45.949,31.082-70.459,43.496c-30.933,15.667-63.151,28.872-96.129,39.572      c-32.707,10.613-66.522,18.842-100.832,21.895c-28.153,2.504-58.372,1.793-84.706-9.595      c-11.244-4.863-21.402-11.9-29.517-21.105c-5.705-6.473-9.786-14.092-13.882-21.633c-6.884-12.672-12.896-25.822-17.721-39.416      c-11.601-32.68-14.992-69.179,0.901-101.003c4.083-8.176,9.315-15.669,14.901-22.875c8.855-11.424,20.946-18.341,34.47-23.105      c40.947-14.425,89.338-7.272,122.837,20.729c2.455,2.053,6.012-1.465,3.535-3.535c-34.28-28.657-82.156-36.22-124.481-23.081      c-14.292,4.436-29.209,11.656-38.56,23.735c-5.735,7.409-11.278,14.88-15.74,23.147c-15.635,28.969-15.438,62.414-6.991,93.582      c6.478,23.903,17.256,48.329,31.004,68.934c6.72,10.071,15.8,18.312,26.148,24.532c23.417,14.076,52.17,17.236,78.963,16.728      c33.351-0.633,66.549-7.359,98.572-16.327c33.687-9.433,66.545-21.903,98.315-36.515c27.155-12.489,53.82-26.639,78.376-43.742      c8.881-6.186,17.548-12.828,25.303-20.397c5.25-5.124,10.326-10.892,13.142-17.748c2.319-5.646,2.729-12.42,3.305-18.432      c0.766-7.993,0.508-16.036-0.761-23.963c-2.278-14.231-9.118-27.51-20.033-37.006c-32.896-28.619-81.652-15.646-119.508-8.121      c-38.02,7.557-80.162,10.367-117.626-1.776c-3.406-1.104-6.804-2.256-9.934-3.941      C401.975,463.596,399.45,467.912,402.29,469.441z"
   id="path46" />
			</g>
		</g>
		<g
   id="g60">
			<g
   id="g58">
				<path
   fill="#EA5534"
   d="M546.133,567.41c0,0-63.581,150.591,27.419,160.591c0,0-64.191,92.509-44.299,96.665      c18.82,3.933,44.299-9.333,64.632-41.333c13.249-20.852,28.048-32.151,43.334-62.333c12.999-25.667-22-31.334-22-31.334      s89.223-66.958,51.223-184.958"
   id="path52" />
				<g
   id="g56">
					<path
   d="M543.722,566.746c-6.637,15.749-11.611,32.381-15.511,48.994c-6.197,26.399-10.939,57.745,0.201,83.503       c8.177,18.905,25.129,28.927,45.14,31.258c-0.72-1.254-1.439-2.508-2.159-3.762c-13.287,19.162-25.895,39.033-36.707,59.699       c-5.001,9.56-12.164,21.723-11.739,32.933c0.507,13.378,21.491,8.113,28.992,5.327c17.868-6.638,31.659-21.676,42.121-37.065       c11.23-16.52,24.626-31.443,35.505-48.191c7.805-12.016,19.829-29.104,7.512-42.107c-5.269-5.563-13.734-8.841-21.193-10.078       c0.199,1.522,0.398,3.046,0.597,4.568c13.707-10.32,25.091-24.444,34.438-38.672c21.175-32.231,30.375-70.777,26.487-109.111       c-1.38-13.601-4.417-26.981-8.553-39.998c-0.973-3.061-5.801-1.752-4.821,1.33c13.478,42.408,12.47,87.555-7.398,127.765       c-9.955,20.147-24.152,39.077-41.538,53.448c-0.512,0.423-1.713,1.354-1.138,0.922c-1.503,1.131-1.801,4.171,0.597,4.568       c9.337,1.551,22.36,6.773,23.048,17.69c0.344,5.452-2.767,10.508-5.235,15.107c-3.447,6.425-7.346,12.597-11.518,18.573       c-6.586,9.436-14.181,18.107-21.159,27.246c-8.155,10.678-14.689,22.239-24.14,31.93c-7.855,8.054-17.345,14.885-28.123,18.358       c-4.062,1.309-8.274,1.907-12.534,1.842c-1.653-0.025-5.321,0.162-6.338-1.304c-1.938-2.793,0.087-8.148,0.948-10.959       c5.49-17.935,16.383-34.695,26.156-50.534c6.425-10.411,13.079-20.708,20.051-30.764c1.198-1.728-0.462-3.564-2.159-3.762       c-67.13-7.819-46.059-96.446-31.704-139.297c2.043-6.101,4.196-12.197,6.696-18.13       C549.795,565.104,544.954,563.821,543.722,566.746L543.722,566.746z"
   id="path54" />
				</g>
			</g>
		</g>
		<g
   id="g70">
			<g
   id="g68">
				<path
   fill="#EA5534"
   d="M349.417,649.46c0,0,7.751,72.374,2.443,92.54c0,0-28.975,80.501-8.809,90.394      c27.461,13.471,67.43-125.577,75.128-202.4"
   id="path62" />
				<g
   id="g66">
					<path
   d="M346.917,649.46c1.178,11.03,2.084,22.095,2.85,33.16c1.205,17.403,2.536,35.273,0.733,52.679       c-0.905,8.731-4.862,17.22-7.323,25.581c-4.533,15.401-8.525,31.288-9.599,47.356c-0.609,9.11-0.431,24.908,11.104,27.338       c9.351,1.97,16.805-8.13,21.282-14.757c9.185-13.595,15.272-29.446,20.862-44.772c7.375-20.221,13.308-40.974,18.5-61.852       c6.879-27.664,12.466-55.82,15.354-84.2c0.326-3.207-4.677-3.176-5,0c-4.3,42.256-14.175,84.368-26.938,124.826       c-5.657,17.932-12.035,35.849-20.71,52.567c-3.016,5.812-6.38,11.582-10.645,16.576c-2.406,2.816-5.775,6.353-9.694,6.805       c-21.124,2.435-0.702-65.398,1.97-74.093c2.681-8.725,5.548-16.328,6.193-25.521c1.253-17.878-0.153-36.052-1.472-53.886       c-0.686-9.279-1.479-18.556-2.467-27.808C351.578,646.288,346.575,646.256,346.917,649.46L346.917,649.46z"
   id="path64" />
				</g>
			</g>
		</g>
		<g
   opacity="0.1"
   id="g74">
			<path
   d="M266.552,550c0,0,106.582,3.495,85.309,139c0,0-25.975,6.333-58.809-7.541c-10.074-4.257-25.273,131.131-64.427,111.988     c-15.042-7.354-3.704-37.741,2.927-76.947c6.846-40.481,6.992-91.222,5-97.5c-5.545-17.473-20.538-24.556-18.182-51     C220.985,538.651,266.552,550,266.552,550z"
   id="path72" />
		</g>
		<path
   opacity="0.1"
   d="M532.702,818.833c0.515-0.982-0.945-20.204-0.483-21.333c17.333-42.334,41.333-69.499,41.333-69.499    s-10.098,0.308-16.442-3.886s-42.426,91.138-88.558,96.091c0,0-41,2.396,35.777-88.557l-1.259-4.205    c0,0-43.734-6.997-46.53-53.997c0,0-17.9,6.211-45.988,11.219c0,0-32.666,151-66.333,134.667c0,0-20.337-21.023-6.337-24.023    S409.552,688,405.052,607c0,0,103.5,17.5,153.5-73c0,0-55,157.5,37.5,113.5s35.266-171.201,13.997-180.983    c0,0,68.253-11.767,65.503,108.233c0,0-6.75,77.5-60.333,114.916c0,0,39.11,9.974,16.991,40.974c0,0-44.825,82.693-83.491,91.86    c0,0-32.707,13.951-17.167-15.667"
   id="path76" />
	</g>
	<g
   id="g90">
		<g
   id="g86">
			<path
   fill="#FEFDF0"
   d="M221.173,478c0,0-43.621,34-28.621,81c0,0,0-11.5,10.5-24.5c0,0-9.5,37,12.5,61     c0,0-0.396-14.613,5.621-27c0,0-0.293,38,25.043,56c0,0-8.41-11.5,10.713-36.5c0,0-5.658,24.5,30.982,58     c0,0,35.396-28,31.269-69.5c0,0,14.372,21,11.372,37c0,0,38.5-11.5,46.5-49c0,0,4,5.248,2,18.124     c0,0,28.212-17.223,23.252-73.124c0,0,10.248,5,10.748,31c0,0,20.5-11.656,15-40.828c0,0,21.5,10.328,21.5,16.328     c0,0,15-48.804-30.5-62.402c-45.5-13.598-171.121-30.005-184.5-2.801C221.173,478,221.173,478,221.173,478z"
   id="path80" />
			<g
   id="g84">
				<path
   d="M219.405,476.232c-24.644,19.322-38.636,52.931-29.264,83.432c0.827,2.692,4.877,2.195,4.911-0.664      c0.097-8.213,4.893-16.488,9.768-22.732c-1.393-0.811-2.785-1.621-4.178-2.432c-5.407,21.386-1.74,46.697,13.143,63.432      c1.461,1.644,4.312,0.339,4.268-1.768c-0.183-8.735,1.625-17.816,5.28-25.738c-1.553-0.421-3.106-0.841-4.659-1.262      c-0.096,21.559,8.563,45.182,26.281,58.158c2.004,1.469,4.839-1.419,3.42-3.42c-1.435-2.024-1.555-5.1-1.473-7.613      c0.315-9.714,6.584-18.9,12.186-26.363c-1.523-0.643-3.046-1.284-4.569-1.926c-1.252,5.618,0.063,11.967,1.626,17.355      c4.933,17.007,17.271,31.301,29.999,43.076c1.086,1.005,2.437,0.875,3.535,0c20.863-16.611,34.354-44.619,32.001-71.268      c-1.553,0.421-3.106,0.841-4.659,1.262c6.615,9.747,13.03,23.051,11.12,35.074c-0.283,1.778,1.084,3.677,3.075,3.074      c23.283-7.042,42.901-27.013,48.246-50.746c-1.523,0.199-3.046,0.398-4.569,0.598c3.125,4.299,2.415,11.352,1.748,16.197      c-0.276,2.007,1.598,4.105,3.672,2.824c6.143-3.796,10.848-10.384,14.383-16.496c10.162-17.573,11.752-38.982,10.107-58.787      c-1.254,0.72-2.508,1.439-3.762,2.158c1.782,0.906,3.204,3.052,4.29,4.854c4.244,7.041,4.992,15.985,5.22,23.988      c0.054,1.885,2.086,3.128,3.762,2.158c14.966-8.656,18.891-27.904,16.149-43.65c-1.224,0.94-2.448,1.882-3.672,2.822      c3.057,1.478,6.037,3.118,8.966,4.834c2.81,1.646,10.934,5.557,11.296,9.336c0.263,2.738,4.052,3.489,4.911,0.664      c2.464-8.105,2.974-17.164,2.06-25.532c-1.797-16.45-11.183-29.881-26.224-36.914c-14.706-6.877-32.45-9.233-48.297-12.024      c-19.619-3.455-39.432-5.948-59.297-7.428c-14.073-1.049-28.226-1.521-42.329-0.838c-10.816,0.523-22.109,1.607-32.309,5.475      c-3.584,1.359-6.968,3.164-9.825,5.743c-4.547,4.106-6.562,10.926-9.184,16.257c-2.514,5.112-5.028,10.224-7.542,15.336      c-1.417,2.882,2.895,5.417,4.317,2.523c0.716-1.455,1.432-2.911,2.148-4.367c3.939-8.01,7.212-17.107,12.206-24.472      c2.71-3.997,8.194-5.979,12.566-7.361c6.958-2.202,14.307-3.122,21.552-3.734c38.444-3.249,78.428,2.213,116.13,9.487      c20.502,3.955,46.151,7.285,56.817,27.719c5.935,11.37,6.088,26.641,2.392,38.803c1.637,0.221,3.274,0.442,4.911,0.664      c-0.508-5.303-6.182-8.763-10.204-11.437c-3.98-2.647-8.23-4.972-12.534-7.05c-2.063-0.997-4.058,0.612-3.672,2.822      c2.354,13.521-0.941,30.537-13.851,38.006c1.254,0.719,2.508,1.438,3.762,2.158c-0.279-9.778-1.481-27.82-11.986-33.158      c-1.548-0.787-3.929,0.143-3.762,2.158c1.588,19.123,0.136,39.219-9.425,56.264c-3.017,5.377-7.625,11.634-12.589,14.701      c1.224,0.941,2.448,1.883,3.672,2.824c0.84-6.108,1.683-14.637-2.252-20.051c-1.172-1.613-4.05-1.709-4.569,0.598      c-4.963,22.038-23.08,40.697-44.754,47.254c1.025,1.024,2.05,2.05,3.075,3.074c2.143-13.486-4.157-27.924-11.624-38.926      c-1.272-1.875-4.895-1.413-4.659,1.262c2.251,25.497-10.595,51.854-30.536,67.732c1.178,0,2.357,0,3.535,0      c-12.036-11.136-23.32-24.19-28.459-40.045c-1.504-4.639-2.774-11.513-1.88-15.523c0.648-2.906-2.906-4.142-4.569-1.926      c-6.338,8.444-12.182,18.09-12.869,28.887c-0.205,3.211,0.22,7.405,2.156,10.137c1.14-1.141,2.28-2.28,3.42-3.42      c-16.216-11.877-23.892-34.199-23.805-53.842c0.011-2.352-3.581-3.598-4.659-1.262c-4.025,8.725-6.164,18.62-5.962,28.262      c1.423-0.589,2.845-1.179,4.268-1.768c-13.652-15.351-16.808-38.987-11.857-58.568c0.564-2.231-2.548-4.52-4.178-2.432      c-5.711,7.313-11.119,16.656-11.232,26.268c1.637-0.222,3.274-0.443,4.911-0.664c-8.891-28.938,4.69-60.308,27.978-78.568      C225.477,477.779,221.911,474.267,219.405,476.232z"
   id="path82" />
			</g>
		</g>
		<path
   opacity="0.1"
   d="M352.629,440.607c0,0-15.577,5.694-21.577,23.793c0,0,6.902-6.203,9.951-5.802    c0,0-23.451,23.745-22.451,43.073c0,0,6.5-8.256,10.5-9.464c0,0-18.23,26.792-27.365,64.792c0,0,6.365-5,8.865-5.5    c0,0-17,33-17.5,50.5c0,0,3-6.014,6-8.007c0,0-5.73,20.491,2.635,37.499c0,0,15.094-11.816,18.979-52.654    c0,0,11.886,18.162,9.886,34.662c0,0,38.5-12,46.5-49c0,0,4,6.748,2,18.124c0,0,23.516-12.843,23.252-73.124    c0,0,10.725,3.139,12.486,29.819c0,0,15.762-10.976,13.262-39.647c0,0,17,3.828,21.5,16.328c0,0,18.384-48.84-39.773-64.935    L352.629,440.607z"
   id="path88" />
	</g>
	<g
   id="g114">
		<g
   id="g98">
			<path
   fill="#EA5534"
   d="M150.325,324.01c0,0-46.521-52.709-4.504-138.998c0,0,55.526,1.5,90.793,81.036"
   id="path92" />
			<g
   id="g96">
				<path
   d="M152.093,322.242c-8.128-9.263-13.712-22.953-17.104-35.072c-9.497-33.935-2.001-69.746,12.991-100.896      c-0.72,0.413-1.439,0.825-2.159,1.238c10.383,0.314,21.755,5.237,30.91,10.351c27.007,15.084,45.331,41.792,57.725,69.447      c1.317,2.938,5.625,0.393,4.317-2.523c-12.812-28.589-31.837-55.472-59.518-71.241c-9.846-5.609-21.886-10.684-33.434-11.033      c-0.818-0.024-1.794,0.48-2.159,1.238c-15.393,31.981-22.83,67.869-14.012,102.807c3.452,13.678,9.461,28.457,18.907,39.221      C150.688,328.205,154.21,324.654,152.093,322.242L152.093,322.242z"
   id="path94" />
			</g>
		</g>
		<g
   id="g106">
			<path
   fill="#F9DDC0"
   d="M163.831,302.064c0,0-17.259-30.764-9.005-90.04c0,0,37.519,12.005,51.024,52.523"
   id="path100" />
			<g
   id="g104">
				<path
   d="M165.99,300.803c-3.672-6.602-5.599-14.414-7.239-21.71c-4.879-21.69-4.48-44.483-1.514-66.403      c-1.025,0.582-2.05,1.164-3.075,1.746c23.006,7.451,41.607,28.432,49.278,50.777c1.041,3.03,5.871,1.729,4.821-1.33      c-8.263-24.069-28.034-46.258-52.771-54.27c-1.168-0.378-2.897,0.434-3.075,1.746c-3.063,22.627-3.406,45.659,1.302,68.089      c1.685,8.029,3.928,16.638,7.955,23.878C163.239,306.144,167.559,303.623,165.99,300.803L165.99,300.803z"
   id="path102" />
			</g>
		</g>
		<g
   id="g110">
			<path
   fill="#F7C59C"
   d="M179.221,286.307c0,0-16.14-15.006-13.139-51.022c0,0,21.76,3.752,34.515,39.769"
   id="path108" />
		</g>
		<path
   opacity="0.1"
   d="M200.597,295.142c0,0-12.379-65.425-42.379-83.117c0,0,39.668-2.335-7.166-27.013    c0,0,51.959,6.654,85.563,83.988"
   id="path112" />
	</g>
	<g
   id="g138">
		<g
   id="g122">
			<path
   fill="#EA5534"
   d="M431.007,316.613c0,0,44.69-54.271-0.26-139.074c0,0-55.441,3.401-87.965,84.098"
   id="path116" />
			<g
   id="g120">
				<path
   d="M432.774,318.381c8.913-10.888,14.206-25.343,17.37-38.839c8.277-35.311-0.713-71.73-17.238-103.265      c-0.384-0.732-1.327-1.292-2.159-1.238c-11.729,0.758-23.578,6.352-33.414,12.354c-27.215,16.605-45.166,44.64-56.961,73.58      c-1.218,2.986,3.621,4.273,4.821,1.328c11.467-28.132,29.011-54.938,55.395-71.037c8.733-5.328,20.66-10.611,30.159-11.225      c-0.72-0.413-1.439-0.825-2.159-1.238c15.993,30.518,24.423,65.263,16.734,99.412c-2.143,9.515-5.563,18.751-10.194,27.334      c-1.301,2.409-2.722,4.756-4.255,7.024c-0.607,0.898-1.623,2.261-1.634,2.274C427.215,317.318,430.731,320.878,432.774,318.381      L432.774,318.381z"
   id="path118" />
			</g>
		</g>
		<g
   id="g130">
			<path
   fill="#F9DDC0"
   d="M416.757,295.142c0,0,16.194-31.337,5.916-90.296c0,0-37.084,13.281-49.195,54.238"
   id="path124" />
			<g
   id="g128">
				<path
   d="M418.916,296.403c3.719-7.263,5.59-15.689,7.064-23.636c4.2-22.641,2.952-45.998-0.896-68.586      c-0.216-1.271-1.885-2.178-3.075-1.746c-24.441,8.851-43.501,31.625-50.941,55.984c-0.944,3.092,3.882,4.403,4.821,1.328      c6.898-22.582,24.762-44.275,47.449-52.492c-1.025-0.582-2.05-1.164-3.075-1.746c3.701,21.727,4.774,44.146,0.896,65.929      c-1.331,7.475-3.103,15.689-6.561,22.441C413.132,296.744,417.445,299.274,418.916,296.403L418.916,296.403z"
   id="path126" />
			</g>
		</g>
		<g
   id="g134">
			<path
   fill="#F7C59C"
   d="M403.838,279.92c0,0,15.615-15.549,11.384-51.443c0,0-21.617,4.495-33.133,40.926"
   id="path132" />
		</g>
		<path
   opacity="0.1"
   d="M396.788,295.142c0,0,22.295-18.429,28.195-73.619c0,0,9.234,28.855,19.568,0c0,0,19.666,56.703-16,95.091"
   id="path136" />
	</g>
	<g
   id="g164">
		<g
   id="g146">
			<path
   fill="#EA5534"
   d="M121.812,346.335c-21.039,39.095-28.602,46.521-42.813,46.521s15.05,13.507,49.567,13.507     c34.516,0,218.348,60.026,328.649-11.257c0,0,24.361-1.74,28.189-5.497c3.825-3.755-23.002-16.96-39.03-60.126     C413.37,240.601,215.104,172.979,121.812,346.335z"
   id="path140" />
			<g
   id="g144">
				<path
   d="M119.653,345.073c-5.849,10.841-11.733,21.796-18.968,31.795c-3.632,5.02-8.119,10.254-14.13,12.384      c-3.331,1.18-11.387-0.337-13.256,3.091c-2.672,4.9,6.553,7.813,9.528,8.955c11.056,4.243,23.126,6.141,34.871,7.134      c6.449,0.545,12.876,0.293,19.301,1.123c12.58,1.625,25.043,4.382,37.494,6.76c38.923,7.435,78.105,13.741,117.739,15.641      c44.574,2.135,90.657-1.217,132.561-17.572c10.104-3.943,19.867-8.729,29.173-14.299c3.162-1.893,3.354-2.461,6.928-2.79      c4.121-0.381,8.23-0.886,12.321-1.509c3.848-0.587,14.613-1.319,15.044-6.84c0.268-3.435-4.002-6.773-6.1-8.93      c-14.749-15.161-26.136-31.96-33.626-51.87c-4.453-11.834-11.486-22.499-19.72-32.031      c-40.553-46.947-110.021-67.042-170.137-57.566C196.858,248.291,148.77,291.311,119.653,345.073      c-1.536,2.835,2.782,5.359,4.317,2.523c20.213-37.323,49.081-69.781,87.468-88.852c31.21-15.505,66.768-20.328,101.182-16.009      c31.307,3.929,61.909,15.795,87.553,34.178c11.352,8.138,21.772,17.873,30.214,29.025c9.971,13.171,14.318,28.441,21.951,42.882      c4.829,9.136,10.85,17.609,17.594,25.423c3.989,4.622,8.549,8.73,12.49,13.384c0.242,0.285,0.827,1.17,0.817,1.146      c-0.065-0.163,1.054-1.247-0.41-0.449c-3.45,1.88-8.205,2.221-12.017,2.802c-3.743,0.57-7.517,0.954-11.287,1.291      c-3.297,0.294-5.164,1.569-8.085,3.348c-38.97,23.73-85.842,31.026-130.781,31.691c-42.25,0.624-84.358-4.952-125.856-12.426      c-14.909-2.685-29.753-5.719-44.664-8.391c-5.048-0.904-10.111-1.747-15.206-2.34c-8.019-0.933-16.102-0.609-24.14-1.576      c-10.528-1.266-22.708-3.348-32.034-8.737c-0.404-0.233-0.755-0.478-1.1-0.788c1.102,0.995-1.965,2.685-0.393,2.265      c1.294-0.346,2.871-0.109,4.208-0.192c2.771-0.172,5.491-0.756,8.049-1.835c5.937-2.504,10.435-7.376,14.258-12.418      c7.861-10.364,14.027-22.005,20.187-33.422C125.501,344.76,121.184,342.235,119.653,345.073z"
   id="path142" />
			</g>
		</g>
		<g
   id="g154">
			<path
   fill="#FEFDF0"
   d="M483.727,404.361c0,0-74.034,88.54-198.591,88.54S93.049,417.367,93.049,417.367l12.507-8.004     c0,0-22.01-5.002-26.012-12.505c-4.004-7.505,9.496,7.606,35.508-7.899c26.012-15.508,44.266-64.615,67.379-64.949     c41.514-0.599,22.5,60.488,9.666,70.655c-6.676,5.289,27.205,23.585,32.189,12.46c6.258-13.967,27.148-101.946,122.766-83.115     c39.755,7.83,98.158,71.85,142.178,61.845c0,0-6.004,7.502-15.508,10.003C464.219,398.359,481.225,404.361,483.727,404.361z"
   id="path148" />
			<g
   id="g152">
				<path
   d="M481.959,402.594c-11.482,13.698-25.93,25.413-40.333,35.835c-33.795,24.453-72.807,41.362-113.954,48.444      c-78.361,13.489-165.95-9.808-225.125-63.682c-2.663-2.424-5.324-4.907-7.731-7.592c-0.168,1.309-0.337,2.617-0.506,3.926      c4.169-2.668,8.338-5.336,12.507-8.004c1.734-1.109,1.611-4.061-0.597-4.568c-6.679-1.538-13.422-3.693-19.436-7.004      c-1.727-0.951-3.498-2.12-4.696-3.716c-0.251-0.334-0.533-0.834-0.696-1.234c-0.568-1.398-0.622,2.142-1.787,2.127      c2.176,0.026,4.93,1.134,7.256,1.395c21.683,2.432,38.842-12.689,51.453-28.397c6.673-8.311,12.701-17.115,19.369-25.431      c5.312-6.624,11.541-14.147,19.727-17.22c6.829-2.563,16.02-0.575,21.322,4.342c5.046,4.679,6.387,12.08,6.55,18.644      c0.327,13.139-3.974,28.977-12.108,39.489c-2.794,3.611-6.396,5.813-2.788,10.557c4.038,5.311,11.022,8.525,17.124,10.735      c5.382,1.949,12.911,3.51,17.546-0.851c2.218-2.087,3.082-6.257,4.091-9.037c3.612-9.951,7.649-19.689,12.852-28.929      c7.062-12.538,16.3-23.966,27.937-32.53c14.535-10.7,32.076-15.64,49.987-16.001c10.665-0.216,21.845,0.896,32.083,3.959      c9.207,2.756,17.784,7.543,26.037,12.372c19.261,11.27,37.29,24.531,56.943,35.152c16.526,8.931,35.813,16.974,54.907,12.891      c-0.811-1.394-1.622-2.786-2.432-4.179c-2.576,3.146-5.937,5.563-9.488,7.484c-2.726,1.474-9.613,1.891-9.613,6.283      c0,5.514,11.111,8.709,15.366,9.007c3.22,0.226,3.198-4.776,0-5c-1.903-0.133-3.944-1.089-5.698-1.774      c-1.357-0.53-2.65-1.222-3.885-1.991c-0.322-0.204-0.613-0.444-0.874-0.72c1.061,1.417,0.18,1.169,2.587,0.458      c5.687-1.681,11.379-5.616,15.14-10.212c1.577-1.927,0.129-4.726-2.432-4.179c-19.868,4.25-40.091-6.079-56.847-15.599      c-19.279-10.952-37.154-24.2-56.517-35.01c-17.705-9.885-36.182-14.329-56.516-13.919c-17.403,0.352-34.508,5.34-48.99,15.055      c-21.722,14.57-34.894,37.989-43.859,61.942c-1.195,3.193-2.282,6.433-3.557,9.596c-2.181,5.414-12.334,1.501-16.339-0.228      c-3.264-1.407-6.473-3.211-9.242-5.449c-0.983-0.795-1.933-1.695-2.635-2.751c-0.683-1.025-0.537-0.326,0.5-1.247      c4.079-3.618,6.716-9.092,8.87-13.985c5.602-12.731,9.06-28.215,5.438-41.948c-3.642-13.816-18.325-21.374-31.989-17.514      c-7.657,2.164-13.827,8.495-18.94,14.252c-6.795,7.65-12.632,16.142-18.786,24.301c-12.598,16.701-29.892,36.118-53.228,32.437      c-2.285-0.36-5.948-2.123-8.174-0.819c-2.857,1.673-0.669,5.6,0.876,7.331c6.193,6.937,17.496,9.869,26.26,11.886      c-0.199-1.522-0.398-3.046-0.597-4.568c-4.169,2.668-8.338,5.336-12.507,8.004c-1.406,0.899-1.607,2.697-0.506,3.926      c11.57,12.906,26.425,23.488,40.936,32.742c35.294,22.51,75.651,36.269,117.118,41.391c48.84,6.033,98.103-1.03,143.139-20.821      c29.601-13.008,57.124-31.36,80.642-53.55c4.296-4.053,8.58-8.234,12.379-12.768      C487.551,403.676,484.033,400.119,481.959,402.594z"
   id="path150" />
			</g>
		</g>
		<g
   opacity="0.1"
   id="g158">
			<path
   d="M353.086,483.832c0,0,31.846-19.694,44.603-38.952c0,0-4.753,2.485-13.758,3.868c0,0,22.305-2.94,24.121-37.056     c3.82-71.731-95.205-91.548-87.666-92.192c54.002-4.621,96.235,50.032,95.203,41.766c0,0-3.453-33.189-15.805-54.949     c0,0-2.895,3.834-2.996,10.297c0,0-14.699-53.984-83.241-76.252c0,0,49.944,14.008,65.095,20.435     c14.529,6.163,39.931,18.085,59.189,51.601c19.258,33.514,10.873,38.834,47.848,74.116l-12.958,11.096l10.328,7.537     C483.049,405.146,415.782,473.011,353.086,483.832z"
   id="path156" />
		</g>
		<path
   opacity="0.1"
   d="M148.052,351c0,0,25.856-14.25,31.053-2.25c0,0,1.947-4.5-1.553-7.5c0,0,35-0.5,21.25,45.25    c0,0,25.75-59-18.25-61.75C180.552,324.75,168.052,320.75,148.052,351z"
   id="path160" />
		<path
   opacity="0.1"
   d="M340.683,331.04c0,0-29.464-33.374-91.465,9.96c0,0,2.834-1.334,7-1.334c0,0-22.846,16.324-36.339,48.746    l-4.493-0.912c0,0,20.026,27.284-25.584,14.034c0,0-3.656,21.023,26.5,23.716c14,1.25,26.699-10.219,28.449-18.109    c0,0,6.523-16.624,19.135-26.141c0,0-4.723-0.397-9.557,2.103c0,0,11.67-33.936,31.503-41.769c0,0-3.614,1.833-9.28,3    C276.552,344.334,313.162,318,340.683,331.04z"
   id="path162" />
	</g>
	<g
   id="g172">
		<path
   fill="#A33920"
   d="M209.534,388.264c0,0-21.046-3.299-20.324,11.771c0.72,15.064,17.471,14.907,17.471,14.907    s21.079,2.626,21.764-12.876C229.131,386.559,216.654,388.48,209.534,388.264z"
   id="path166" />
		<g
   id="g170">
			<path
   d="M210.199,385.854c-8.782-1.322-20.78,0.172-23.199,10.354c-2.927,12.323,8.431,20.936,19.514,21.231     c8.498,0.228,19.465-0.484,23.21-9.705c2.401-5.913,1.798-14.72-3.658-18.82c-4.76-3.576-10.911-3.033-16.531-3.15     c-3.226-0.067-3.22,4.933,0,5c3.956,0.083,7.913-0.222,11.718,1.078c5.905,2.017,5.702,11.167,3.023,15.546     c-3.52,5.754-11.922,5.052-17.637,5.054c-8.323,0.003-16.155-5.841-14.817-14.904c0.717-4.858,5.826-6.49,10.042-6.943     c1.603-0.172,3.226-0.157,4.834-0.091c0.509,0.021,2.806,0.267,2.171,0.171C212.022,391.149,213.378,386.332,210.199,385.854z"
   id="path168" />
		</g>
	</g>
	<path
   opacity="0.1"
   d="M206.29,390c0,0,14.529,18.791-6.488,21.692s29.474,8.571,28.42-7.587C227.302,390,230.778,391.5,206.29,390   z"
   id="path174" />
	
	
	<g
   id="g192">
		<g
   id="g186">
			<ellipse
   cx="171.935"
   cy="369.851"
   rx="10.17"
   ry="14.006"
   id="ellipse184" />
		</g>
		<g
   id="g190">
			<ellipse
   cx="293.002"
   cy="369.851"
   rx="10.17"
   ry="14.006"
   id="ellipse188" />
		</g>
	</g>
	<g
   id="g198">
		<g
   id="g196">
			<path
   d="M183.211,450.768c3.007,4.183,7.201,8.054,12.025,9.973c9.514,3.783,17.048-2.2,22.08-9.973c-1.439,0-2.878,0-4.317,0     c2.898,4.473,7.069,8.577,11.998,10.691c9.669,4.148,17.274-3.351,21.913-11.135c1.655-2.776-2.669-5.29-4.317-2.523     c-4.202,7.052-10.133,12.725-18.145,7.727c-2.809-1.752-5.332-4.507-7.13-7.283c-1.043-1.61-3.274-1.611-4.317,0     c-4.46,6.888-10.494,11.178-18.249,6.672c-2.749-1.598-5.361-4.084-7.222-6.672C185.665,445.652,181.325,448.145,183.211,450.768     L183.211,450.768z"
   id="path194" />
		</g>
	</g>
	<g
   id="g206">
		<path
   fill="#E88A36"
   d="M338.325,791.173c0,0-5.863,24.471-25.527,28.047c-19.666,3.575-14.898,25.028-2.98,23.837    c0,0-1.424-13.707,7.631-14.303c0,0-14.781,5.363-3.161,19.964c0,0,5.363,2.979,16.388,0c0,0-6.555-8.939,4.768-14.898    c0,0-14.303,10.992,0,16.223c0,0,10.131,4.337,19.367-9.071s10.669-27.508,17.002-35.508"
   id="path200" />
		<g
   id="g204">
			<path
   d="M335.915,790.508c-1.119,4.566-3.199,8.917-5.641,12.908c-2.336,3.817-5.4,7.177-9.08,9.729     c-4.465,3.099-9.649,3.114-14.428,5.305c-6.765,3.101-10.561,9.233-9.556,16.666c0.837,6.186,6.452,10.8,12.607,10.441     c1.259-0.073,2.634-1.086,2.5-2.5c-0.385-4.066-0.031-11.143,5.131-11.803c-0.222-1.637-0.443-3.273-0.665-4.91     c-6.327,2.381-10.151,7.957-9.174,14.742c1.853,12.862,13.793,12.508,23.73,10.043c1.475-0.366,2.422-2.358,1.494-3.673     c-3.288-4.655-0.607-8.89,3.871-11.478c-1.01-1.31-2.02-2.618-3.029-3.927c-3.674,2.874-7.605,7.523-6.987,12.486     c0.688,5.522,7.001,8.218,11.939,8.647c9.21,0.8,15.973-7.039,20.34-14.057c6.304-10.129,7.868-22.854,15.003-32.404     c1.932-2.586-2.412-5.074-4.317-2.523c-4.238,5.672-6.275,12.688-8.759,19.229c-3.268,8.604-7.983,20.277-17.176,23.981     c-3.723,1.5-9.318,0.963-11.793-2.623c-2.032-2.945,3.239-7.601,5.285-9.202c2.287-1.789-0.64-5.308-3.029-3.927     c-6.632,3.835-10.585,11.351-5.665,18.319c0.498-1.224,0.996-2.448,1.494-3.673c-4.137,1.027-8.382,1.694-12.608,0.826     c-2.874-0.59-3.866-3.703-4.728-6.344c-1.433-4.39,2.087-8.363,5.438-9.625c2.435-0.916,2.327-5.293-0.665-4.91     c-8.3,1.063-10.835,9.376-10.131,16.803c0.833-0.833,1.667-1.667,2.5-2.5c-6.416,0.373-8.994-6.264-7.201-11.629     c2.581-7.719,14.113-7.367,20.162-10.869c9.11-5.271,15.494-16.167,17.958-26.221     C341.503,788.706,336.682,787.378,335.915,790.508L335.915,790.508z"
   id="path202" />
		</g>
	</g>
	<g
   id="g214">
		<path
   fill="#E88A36"
   d="M467.204,784.173c0,0-10.742,20.471-30.406,24.047c-19.666,3.575-14.898,25.028-2.98,23.837    c0,0-1.424-13.707,7.631-14.303c0,0-14.781,5.363-3.161,19.964c0,0,5.363,2.979,16.388,0c0,0-6.555-8.939,4.768-14.898    c0,0-14.303,10.992,0,16.223c0,0,6.734,1.201,19.367-9.071c13.408-10.903,24.644-27.895,30.977-35.895"
   id="path208" />
		<g
   id="g212">
			<path
   d="M465.045,782.911c-2.396,4.507-5.743,8.534-9.332,12.128c-3.746,3.752-8.193,6.842-13.086,8.896     c-4.529,1.902-9.439,2.138-13.818,4.483c-11.471,6.146-9.833,27.002,5.007,26.139c1.258-0.073,2.634-1.086,2.5-2.5     c-0.385-4.066-0.032-11.143,5.131-11.803c-0.222-1.637-0.443-3.273-0.665-4.91c-6.326,2.381-10.151,7.957-9.174,14.742     c1.853,12.862,13.793,12.508,23.729,10.043c1.475-0.366,2.422-2.358,1.494-3.673c-3.287-4.655-0.607-8.89,3.871-11.478     c-1.01-1.31-2.02-2.618-3.029-3.927c-3.581,2.802-8.342,8.17-6.898,13.151c1.697,5.854,7.721,8.083,13.17,6.867     c10.222-2.279,19.006-10.82,25.959-18.12c8.005-8.403,14.509-17.999,21.647-27.106c1.965-2.506-1.547-6.071-3.535-3.535     c-11.288,14.4-21.498,30.488-37.336,40.392c-2.698,1.687-5.617,3.003-8.726,3.696c-2.38,0.531-2.147,0.176-3.896-0.716     c-5.617-2.865,0.091-8.701,3.148-11.094c2.287-1.789-0.64-5.308-3.029-3.927c-6.632,3.835-10.585,11.351-5.665,18.319     c0.498-1.224,0.996-2.448,1.494-3.673c-4.137,1.027-8.382,1.694-12.608,0.826c-2.874-0.59-3.866-3.703-4.728-6.344     c-1.433-4.39,2.087-8.363,5.438-9.625c2.436-0.916,2.327-5.293-0.665-4.91c-8.3,1.063-10.834,9.376-10.131,16.803     c0.833-0.833,1.667-1.667,2.5-2.5c-5.588,0.325-8.632-4.973-7.66-10.083c1.642-8.638,12.594-8.532,19.011-11.226     c10.103-4.242,19.06-13.153,24.195-22.813C470.875,782.59,466.56,780.063,465.045,782.911L465.045,782.911z"
   id="path210" />
		</g>
	</g>
	<g
   id="g222">
		<path
   fill="#E88A36"
   d="M533.392,794.076c0,0-6.93,17.567-26.594,21.144c-19.666,3.575-14.898,25.028-2.98,23.837    c0,0-1.424-13.707,7.631-14.303c0,0-14.781,5.363-3.161,19.964c0,0,5.363,2.979,16.388,0c0,0-6.555-8.939,4.768-14.898    c0,0-14.303,10.992,0,16.223c0,0,16.206,3.032,25.442-10.376s15.557-22.184,21.89-30.184"
   id="path216" />
		<g
   id="g220">
			<path
   d="M530.981,793.412c-1.112,2.757-5.034,8.112-8.095,11.053c-3.543,3.404-7.901,5.782-12.541,7.316     c-4.628,1.531-9.135,1.832-13.217,4.76c-9.861,7.071-7.118,25.818,6.689,25.016c1.258-0.073,2.634-1.086,2.5-2.5     c-0.385-4.066-0.032-11.143,5.131-11.803c-0.222-1.637-0.443-3.273-0.665-4.91c-6.326,2.381-10.151,7.957-9.174,14.742     c1.853,12.862,13.793,12.508,23.729,10.043c1.475-0.366,2.422-2.358,1.494-3.673c-3.287-4.655-0.607-8.89,3.871-11.478     c-1.01-1.31-2.02-2.618-3.029-3.927c-3.581,2.802-8.342,8.17-6.898,13.151c1.739,5.999,7.946,7.696,13.469,7.623     c8.397-0.112,16.884-3.823,21.912-10.689c7.519-10.267,14.498-20.884,22.384-30.887c1.973-2.502-1.54-6.066-3.535-3.535     c-4.918,6.237-9.619,12.636-14.214,19.114c-5.56,7.839-10.004,16.847-19.727,19.933c-4.217,1.339-9.317,1.8-13.005-0.081     c-5.617-2.865,0.091-8.701,3.148-11.094c2.287-1.789-0.64-5.308-3.029-3.927c-6.632,3.835-10.585,11.351-5.665,18.319     c0.498-1.224,0.996-2.448,1.494-3.673c-4.137,1.027-8.382,1.694-12.608,0.826c-2.874-0.59-3.866-3.703-4.728-6.344     c-1.433-4.39,2.087-8.363,5.438-9.625c2.436-0.916,2.327-5.293-0.665-4.91c-8.3,1.063-10.834,9.376-10.131,16.803     c0.833-0.833,1.667-1.667,2.5-2.5c-5.588,0.325-8.632-4.973-7.66-10.083c1.59-8.363,11.79-8.416,18.094-10.778     c9.403-3.524,17.777-11.596,21.551-20.955C537.009,791.748,532.171,790.461,530.981,793.412L530.981,793.412z"
   id="path218" />
		</g>
	</g>
	<g
   id="g230">
		<path
   fill="#E88A36"
   d="M255.759,780.318c-5.873,9.183-7.713,21.244-16.949,34.652s-19.367,9.071-19.367,9.071    c-14.303-5.23,0-16.223,0-16.223c-11.322,5.959-4.768,14.898-4.768,14.898c-11.024,2.979-16.388,0-16.388,0    c-11.62-14.601,3.161-19.964,3.161-19.964c-9.055,0.596-7.631,14.303-7.631,14.303c-11.918,1.191-16.686-20.262,2.98-23.837    c19.664-3.576,24.53-24.553,24.53-24.553"
   id="path224" />
		<g
   id="g228">
			<path
   d="M253.6,779.057c-3.992,6.49-6.303,13.809-9.316,20.767c-3.516,8.12-8.461,18.928-17.507,21.898     c-3.522,1.156-8.619,0.303-10.852-2.933c-2.032-2.945,3.239-7.601,5.285-9.202c2.287-1.789-0.64-5.308-3.029-3.927     c-6.632,3.835-10.585,11.351-5.665,18.319c0.498-1.224,0.996-2.448,1.494-3.673c-4.137,1.027-8.382,1.694-12.608,0.826     c-2.874-0.59-3.866-3.703-4.728-6.344c-1.433-4.39,2.087-8.363,5.438-9.625c2.435-0.916,2.327-5.293-0.665-4.91     c-8.3,1.063-10.835,9.376-10.131,16.803c0.833-0.833,1.667-1.667,2.5-2.5c-5.999,0.349-8.827-5.604-7.458-10.859     c2.087-8.015,12.795-7.861,18.944-10.655c9.111-4.14,16.136-14.085,18.435-23.71c0.749-3.135-4.072-4.465-4.821-1.33     c-1.024,4.289-3.192,8.315-5.703,11.898c-2.664,3.801-6.323,6.736-10.434,8.824c-4.44,2.256-9.539,2.319-13.97,4.693     c-11.471,6.146-9.833,27.002,5.007,26.139c1.259-0.073,2.634-1.086,2.5-2.5c-0.385-4.066-0.031-11.143,5.131-11.803     c-0.222-1.637-0.443-3.273-0.665-4.91c-6.327,2.381-10.151,7.957-9.174,14.742c1.853,12.862,13.793,12.508,23.73,10.043     c1.475-0.366,2.422-2.358,1.494-3.673c-3.288-4.655-0.607-8.89,3.871-11.478c-1.01-1.31-2.02-2.618-3.029-3.927     c-3.674,2.874-7.605,7.523-6.987,12.486c0.688,5.522,7.001,8.218,11.939,8.647c9.287,0.807,15.975-7.127,20.422-14.145     c6.263-9.883,8.769-21.542,14.869-31.461C259.611,778.825,255.286,776.316,253.6,779.057L253.6,779.057z"
   id="path226" />
		</g>
	</g>
</g>
<rect
   x="-0.448"
   y="39.486"
   fill="none"
   width="960"
   height="104.301"
   id="rect234" />

</svg>
